<svg width="422" height="409" viewBox="0 0 422 409" fill="none" xmlns="http://www.w3.org/2000/svg">
<g filter="url(#filter0_d_362_1191)">
<rect x="80" y="80" width="262" height="249" rx="25" fill="#1F173D"/>
</g>
<g clip-path="url(#clip0_362_1191)">
<path d="M195.534 163.394C195.247 163.217 195.016 162.961 194.869 162.658C194.721 162.354 194.663 162.015 194.702 161.68C194.74 161.344 194.873 161.027 195.085 160.764C195.297 160.502 195.58 160.305 195.9 160.196C202.397 157.96 209.311 157.197 216.14 157.963C222.969 158.728 229.542 161.003 235.381 164.622C235.593 164.755 235.774 164.931 235.913 165.139C236.051 165.347 236.145 165.582 236.187 165.828C236.229 166.074 236.218 166.327 236.156 166.569C236.094 166.811 235.982 167.037 235.826 167.233C230.67 173.813 224.347 179.392 217.172 183.689C211.376 175.56 204.021 168.661 195.534 163.394ZM210.813 187.029C204.309 178.166 195.753 171.007 185.876 166.165C185.593 166.028 185.278 165.969 184.965 165.995C184.651 166.021 184.351 166.13 184.094 166.312C176.098 172.025 170.121 180.122 167.021 189.44C166.943 189.678 166.917 189.93 166.943 190.18C166.969 190.429 167.048 190.67 167.174 190.886C167.301 191.103 167.471 191.291 167.675 191.437C167.879 191.583 168.111 191.685 168.357 191.735C173.005 192.736 177.745 193.246 182.5 193.256C192.279 193.262 201.941 191.137 210.813 187.029ZM257.036 198.9C255.904 188.584 251.325 178.95 244.038 171.551C243.86 171.371 243.646 171.231 243.41 171.14C243.173 171.049 242.92 171.009 242.668 171.023C242.415 171.037 242.168 171.105 241.943 171.223C241.719 171.34 241.522 171.503 241.366 171.703C235.73 178.874 228.836 184.963 221.02 189.671C223.461 193.897 225.482 198.351 227.054 202.97C233.433 201.243 240.015 200.369 246.625 200.373C249.452 200.373 252.277 200.532 255.086 200.848C255.347 200.875 255.611 200.842 255.859 200.755C256.107 200.667 256.332 200.525 256.518 200.34C256.704 200.156 256.848 199.932 256.937 199.685C257.027 199.438 257.061 199.175 257.036 198.914V198.9ZM229.022 209.797C230.342 215.405 231.007 221.147 231.003 226.908C231.001 232.422 230.387 237.918 229.173 243.297C229.096 243.627 229.114 243.972 229.225 244.291C229.337 244.611 229.538 244.892 229.804 245.102C230.07 245.311 230.39 245.441 230.727 245.475C231.064 245.509 231.404 245.447 231.707 245.295C238.461 241.91 244.286 236.931 248.676 230.788C253.066 224.646 255.889 217.526 256.898 210.046C256.929 209.813 256.913 209.576 256.851 209.349C256.789 209.122 256.683 208.91 256.539 208.724C256.394 208.538 256.214 208.383 256.009 208.267C255.804 208.151 255.578 208.077 255.344 208.049C246.538 206.917 237.595 207.522 229.022 209.828V209.797ZM220.276 205.149C218.84 200.944 216.992 196.89 214.758 193.047C204.693 197.877 193.667 200.381 182.5 200.373C177.28 200.373 172.074 199.829 166.968 198.749C166.721 198.697 166.467 198.698 166.221 198.752C165.974 198.805 165.743 198.91 165.54 199.06C165.338 199.21 165.169 199.4 165.046 199.62C164.923 199.839 164.848 200.082 164.826 200.333C164.734 201.519 164.686 202.718 164.683 203.931C164.681 210.265 165.984 216.531 168.513 222.34C171.041 228.148 174.74 233.375 179.378 237.693C179.574 237.872 179.807 238.006 180.061 238.083C180.315 238.161 180.583 238.181 180.845 238.141C181.108 238.102 181.358 238.005 181.578 237.856C181.798 237.708 181.982 237.513 182.117 237.284C190.809 222.554 204.269 211.224 220.276 205.163V205.149ZM187.706 241.848C187.589 242.052 187.513 242.277 187.484 242.51C187.455 242.744 187.472 242.981 187.535 243.207C187.598 243.434 187.705 243.646 187.851 243.831C187.996 244.016 188.177 244.17 188.383 244.285C197.696 249.5 208.528 251.337 219.042 249.484C219.355 249.43 219.647 249.291 219.887 249.084C220.127 248.876 220.306 248.607 220.405 248.306C222.702 241.409 223.875 234.189 223.878 226.921C223.879 221.914 223.321 216.922 222.213 212.039C207.621 217.717 195.435 228.244 187.706 241.848Z" fill="#EA4C89"/>
<path d="M211 157.675C201.84 157.675 192.886 160.387 185.27 165.47C177.654 170.553 171.718 177.777 168.213 186.229C164.708 194.682 163.79 203.982 165.577 212.955C167.364 221.928 171.775 230.17 178.252 236.639C184.729 243.108 192.981 247.513 201.965 249.298C210.949 251.083 220.261 250.167 228.723 246.666C237.186 243.165 244.419 237.236 249.507 229.629C254.596 222.023 257.313 213.079 257.313 203.931C257.3 191.667 252.416 179.909 243.734 171.237C235.051 162.565 223.279 157.688 211 157.675ZM250.032 200.453C248.898 200.399 247.762 200.373 246.625 200.373C240.017 200.375 233.437 201.248 227.058 202.97C225.503 198.36 223.497 193.915 221.069 189.698C227.401 185.884 233.133 181.156 238.079 175.666C244.943 182.206 249.191 191.016 250.032 200.453ZM232.5 171.222C228.05 176.106 222.907 180.311 217.234 183.703C212.484 177.024 206.673 171.165 200.032 166.357C205.48 164.768 211.209 164.38 216.821 165.221C222.434 166.061 227.797 168.108 232.54 171.222H232.5ZM192.141 169.63C199.42 174.208 205.766 180.121 210.844 187.056C201.957 191.147 192.286 193.263 182.5 193.256C179.48 193.255 176.463 193.054 173.469 192.656C176.448 182.842 183.148 174.579 192.141 169.63ZM171.813 203.931C171.812 202.498 171.891 201.067 172.049 199.643C175.511 200.129 179.003 200.373 182.5 200.373C193.675 200.383 204.711 197.891 214.794 193.078C217.016 196.91 218.852 200.952 220.276 205.145C216.492 206.565 212.829 208.29 209.326 210.304C199.551 215.944 191.171 223.705 184.802 233.014C180.713 229.35 177.442 224.866 175.204 219.855C172.966 214.844 171.81 209.418 171.813 203.931ZM190.516 237.289C196.297 228.748 203.948 221.631 212.888 216.478C215.877 214.755 218.996 213.268 222.217 212.03C223.32 216.916 223.877 221.908 223.878 226.917C223.881 231.786 223.36 236.641 222.324 241.398C217.032 242.995 211.462 243.454 205.979 242.746C200.497 242.038 195.227 240.178 190.516 237.289ZM230.175 238.058C230.725 234.377 231.002 230.661 231.003 226.939C231.003 221.178 230.338 215.437 229.022 209.829C234.762 208.282 240.68 207.495 246.625 207.489C247.753 207.489 248.883 207.517 250.014 207.574C249.417 213.877 247.301 219.942 243.846 225.25C240.391 230.558 235.701 234.951 230.175 238.054V238.058Z" fill="#C32461"/>
</g>
<rect x="280" y="120" width="20.4545" height="150" fill="#EA4C89"/>
<rect x="280" y="120" width="2.27273" height="150" fill="#8E2459"/>
<rect x="282.273" y="120" width="2.27273" height="150" fill="#C32461"/>
<rect x="284.546" y="120" width="2.27273" height="150" fill="#C32461"/>
<rect x="286.818" y="120" width="2.27273" height="150" fill="#D63775"/>
<rect x="300.455" y="120" width="2.27273" height="150" fill="#A33A6F"/>
<rect x="302.728" y="120" width="2.27273" height="150" fill="#3C1E48" fill-opacity="0.5"/>
<rect width="20.4539" height="150" transform="matrix(-1 -0.000362271 0.000357161 -1 141.999 288.009)" fill="#EA4C89"/>
<rect width="2.27266" height="150" transform="matrix(-1 -0.000362271 0.000357161 -1 141.999 288.009)" fill="#8E2459"/>
<rect width="2.27266" height="150" transform="matrix(-1 -0.000362271 0.000357161 -1 139.727 288.008)" fill="#C32461"/>
<rect width="2.27266" height="150" transform="matrix(-1 -0.000362271 0.000357161 -1 137.454 288.007)" fill="#C32461"/>
<rect width="2.27266" height="150" transform="matrix(-1 -0.000362271 0.000357161 -1 135.181 288.007)" fill="#D63775"/>
<rect width="2.27266" height="150" transform="matrix(-1 -0.000362271 0.000357161 -1 121.545 288.002)" fill="#A33A6F"/>
<rect width="2.27266" height="150" transform="matrix(-1 -0.000362271 0.000357161 -1 119.272 288.001)" fill="#3C1E48" fill-opacity="0.5"/>
<defs>
<filter id="filter0_d_362_1191" x="0" y="0" width="422" height="409" filterUnits="userSpaceOnUse" color-interpolation-filters="sRGB">
<feFlood flood-opacity="0" result="BackgroundImageFix"/>
<feColorMatrix in="SourceAlpha" type="matrix" values="0 0 0 0 0 0 0 0 0 0 0 0 0 0 0 0 0 0 127 0" result="hardAlpha"/>
<feMorphology radius="10" operator="dilate" in="SourceAlpha" result="effect1_dropShadow_362_1191"/>
<feOffset/>
<feGaussianBlur stdDeviation="35"/>
<feComposite in2="hardAlpha" operator="out"/>
<feColorMatrix type="matrix" values="0 0 0 0 0.470588 0 0 0 0 0.470588 0 0 0 0 0.470588 0 0 0 0.3 0"/>
<feBlend mode="normal" in2="BackgroundImageFix" result="effect1_dropShadow_362_1191"/>
<feBlend mode="normal" in="SourceGraphic" in2="effect1_dropShadow_362_1191" result="shape"/>
</filter>
<clipPath id="clip0_362_1191">
<rect width="114" height="113.862" fill="white" transform="translate(154 147)"/>
</clipPath>
</defs>
</svg>
