<?xml version="1.0" encoding="utf-8"?>
<!-- Uploaded to: SVG Repo, www.svgrepo.com, Generator: SVG Repo Mixer Tools -->
<!DOCTYPE svg PUBLIC "-//W3C//DTD SVG 1.1//EN" "http://www.w3.org/Graphics/SVG/1.1/DTD/svg11.dtd">
<svg fill="#000000" width="800px" height="800px" viewBox="0 0 1000 1000" version="1.1" xmlns="http://www.w3.org/2000/svg" xmlns:xlink="http://www.w3.org/1999/xlink"  enable-background="new 0 0 1000 1000" xml:space="preserve">

<g>
<g transform="translate(0.000000,511.000000) scale(0.100000,-0.100000)">
<path d="M1373.4,4098.7c-26.8-26.8-30.6-63.2-21.1-252.8c30.6-647.2,32.6-746.8,11.5-785.1c-26.8-53.6-80.4-49.8-191.5,9.6c-49.8,26.8-107.2,46-124.5,42.1c-78.5-15.3-76.6-53.6,28.7-534.2L1180,2111l11.5-545.7l11.5-545.7l68.9-191.5c101.5-281.5,137.9-360,254.7-540c126.4-193.4,317.9-388.7,494-503.6c114.9-74.7,128.3-91.9,128.3-145.5c0-118.7-5.7-122.6-199.1-122.6c-329.4-1.9-580.2-86.2-771.7-262.3c-55.5-49.8-294.9-350.4-532.3-664.5C101.9-2134.2,100-2140,100-2703c0-358.1,23-490.2,116.8-675.9c103.4-204.9,352.3-417.4,568.7-482.5l42.1-13.4v365.7c0,306.4,5.7,377.2,30.6,421.3c103.4,172.3,356.2,137.9,409.8-55.5c9.6-38.3,19.2-226,19.2-417.4v-350.4h1530h1531.9l5.8,404l5.7,404.1l70.9,65.1c88.1,78.5,191.5,88.1,271.9,24.9c99.6-78.5,107.2-118.7,107.2-517v-367.7l99.6,11.5c137.9,17.2,350.4,122.6,476.8,239.4l109.2,99.6h863.6h863.6v306.4c0,300.6,1.9,308.3,47.9,354.3c61.3,63.2,160.8,63.2,233.6,1.9l53.6-45.9l5.7-300.6l7.7-300.6l76.6,11.5c201.1,32.5,430.8,218.3,528.5,428.9c42.1,91.9,51.7,143.6,57.5,312.1l7.7,203l-130.2,15.3c-415.5,44-823.4,248.9-1124,563c-576.4,603.2-674,1512.8-239.4,2225.1C6855.7,403,7156.3,717,7296.1,799.4l82.3,47.9l-5.7,325.5c-5.7,316-7.7,329.4-61.3,438.5c-74.7,151.3-195.3,268.1-352.3,342.8l-128.3,61.3l-501.7,5.7l-501.7,7.7l-111.1,141.7c-116.8,151.3-172.3,176.2-206.8,99.6c-34.5-78.5-82.3-63.2-273.8,93.8c-229.8,187.7-227.9,187.7-264.3,157c-24.9-21.1-28.7-76.6-15.3-413.6c15.3-448.1,15.3-446.2-147.5-369.6c-84.3,40.2-97.7,42.1-124.5,17.2c-24.9-26.8-17.2-74.7,59.4-425.1c86.2-392.5,86.2-400.2,86.2-758.3V209.6l68.9-195.3c78.5-227.9,143.6-348.5,270-505.5c80.4-99.6,252.8-247,358.1-308.3c26.8-15.3,30.6-34.5,21.1-90l-13.4-68.9l-204.9-7.7c-189.6-5.7-216.4-11.5-340.8-72.8l-136-67L4720.6-947c-268.1,329.4-484.5,442.3-852.1,444.3c-185.7,0-191.5,3.8-214.5,143.6c-13.4,74.7-11.5,78.5,78.5,134c128.3,80.4,333.2,277.7,444.2,428.9c118.7,162.8,216.4,358.1,316,633.8l78.5,220.2v804.2c0,792.8,0,806.2-44,928.7c-118.7,329.4-392.5,570.6-720,630c-65.1,11.5-363.8,21.1-698.9,21.1l-586,1.9l-134,174.3c-189.6,247-243.2,271.9-298.7,143.6c-47.9-107.2-84.3-91.9-371.5,147.4c-143.6,122.5-273.8,222.1-287.2,222.1C1415.5,4131.2,1390.6,4117.8,1373.4,4098.7z"/>
<path d="M8203.7,797.4c-93.8-26.8-204.9-147.4-229.8-252.8c-13.4-53.6-23-256.6-23-518.9V-407h-459.6c-561.1,0-618.5-15.3-710.4-195.3c-82.4-162.8-23-383,130.2-478.7c70.9-42.1,88.1-44,555.3-49.8l482.6-5.7l5.7-473c5.7-463.4,5.7-474.9,53.6-559.2c113-199.2,375.3-243.2,549.6-90c114.9,101.5,120.6,132.1,120.6,654.9v469.2h459.6c373.4,0,474.9,5.7,532.3,28.7c296.8,126.4,308.3,513.2,19.2,662.5c-65.1,32.6-116.8,36.4-541.9,36.4h-469.1V62.1c0,522.8-5.7,553.4-120.6,654.9C8454.6,808.9,8335.9,835.7,8203.7,797.4z"/>
</g>
</g>
</svg>