<?xml version="1.0" encoding="utf-8"?>
<!-- Uploaded to: SVG Repo, www.svgrepo.com, Generator: SVG Repo Mixer Tools -->
<svg width="8px" height="8px" viewBox="0 0 8 8" class="icon"  version="1.1" xmlns="http://www.w3.org/2000/svg"><path d="M512.004 512.002m-491.988 0a491.988 491.988 0 1 0 983.976 0 491.988 491.988 0 1 0-983.976 0Z" fill="#FDDF6D" /><path d="M617.43 931.354c-271.716 0-491.986-220.268-491.986-491.986 0-145.168 62.886-275.632 162.888-365.684C129.056 155.124 20.016 320.828 20.016 512c0 271.716 220.268 491.986 491.986 491.986 126.548 0 241.924-47.796 329.098-126.298-67.106 34.31-143.124 53.666-223.67 53.666z" fill="#FCC56B" /><path d="M426.314 359.704m-60.044 0a60.044 60.044 0 1 0 120.088 0 60.044 60.044 0 1 0-120.088 0Z" fill="#FFFFFF" /><path d="M764.376 359.704m-60.044 0a60.044 60.044 0 1 0 120.088 0 60.044 60.044 0 1 0-120.088 0Z" fill="#FFFFFF" /><path d="M718.588 43.392c-10.112-4.462-21.928 0.114-26.396 10.228-4.464 10.112 0.114 21.928 10.226 26.392C873.454 155.52 983.97 325.086 983.97 512c0 260.248-211.724 471.97-471.968 471.97S40.03 772.244 40.03 512 251.756 40.03 512.002 40.03c11.056 0 20.014-8.962 20.014-20.014S523.058 0 512.002 0c-282.316 0-512 229.68-512 512s229.68 512 512 512C794.318 1024 1024 794.32 1024 512c0.002-202.762-119.882-386.7-305.412-468.608z" fill="" /><path d="M346.268 359.71c0 44.144 35.914 80.058 80.058 80.058s80.058-35.914 80.058-80.058-35.914-80.058-80.058-80.058-80.058 35.914-80.058 80.058z m120.09 0c0 22.072-17.958 40.03-40.03 40.03s-40.03-17.958-40.03-40.03 17.958-40.03 40.03-40.03c22.072 0 40.03 17.958 40.03 40.03zM844.432 359.71c0-44.144-35.914-80.058-80.058-80.058s-80.058 35.914-80.058 80.058 35.914 80.058 80.058 80.058 80.058-35.914 80.058-80.058z m-120.088 0c0-22.072 17.958-40.03 40.03-40.03s40.03 17.958 40.03 40.03-17.958 40.03-40.03 40.03-40.03-17.958-40.03-40.03z" fill="" /><path d="M644.874 40.03m-20.014 0a20.014 20.014 0 1 0 40.028 0 20.014 20.014 0 1 0-40.028 0Z" fill="" /></svg>