<?xml version="1.0" encoding="iso-8859-1"?>
<!-- Uploaded to: SVG Repo, www.svgrepo.com, Generator: SVG Repo Mixer Tools -->
<svg fill="#000000" version="1.1" id="Capa_1" xmlns="http://www.w3.org/2000/svg" xmlns:xlink="http://www.w3.org/1999/xlink" 
	 viewBox="0 0 512.001 512.001" xml:space="preserve">
<g>
	<g>
		<path d="M239.847,163.95c0-33.104-13.195-63.923-37.154-86.78c-23.946-22.845-55.413-34.573-88.555-33.006
			C83.1,45.625,54.207,59.308,32.785,82.692C11.643,105.767,0,135.751,0,167.114v118.411c0,29.985,24.393,54.379,54.378,54.379
			h1.167l17.013,0.153c8.719,1.092,15.493,8.535,15.493,17.545v78.501c0,17.575,14.298,31.873,31.872,31.873
			c17.575,0,31.873-14.298,31.873-31.873v-78.501c0-9.759,7.94-17.698,17.7-17.698h15.974c29.984,0,54.378-24.393,54.378-54.379
			V163.95H239.847z M136.077,436.104c0,8.908-7.247,16.155-16.155,16.155c-8.907,0-16.154-7.247-16.154-16.155v-64.187h32.309
			V436.104z M224.129,276.561H55.88v15.718h167.645c-3.204,18.107-19.044,31.908-38.056,31.908h-15.974
			c-17.956,0-32.642,14.235-33.382,32.012h-32.38c-0.241-5.802-1.963-11.229-4.805-15.905l20.802,0.187l0.141-15.718l-46.264-0.415
			c-1.071-0.104-2.156-0.161-3.255-0.161H54.378c-19.013,0-34.852-13.8-38.058-31.908h23.841v-15.718H15.718v-7.335h208.411V276.561
			z M224.129,253.508H15.718v-86.394c0-27.424,10.177-53.634,28.657-73.805c18.6-20.303,43.638-32.181,70.501-33.446
			c28.824-1.348,56.159,8.828,76.966,28.678c20.82,19.862,32.287,46.643,32.287,75.408V253.508z"/>
	</g>
</g>
<g>
	<g>
		<rect x="88.367" y="300.665" width="14.67" height="15.718"/>
	</g>
</g>
<g>
	<g>
		<rect x="111.42" y="300.665" width="15.718" height="15.718"/>
	</g>
</g>
<g>
	<g>
		<rect x="135.521" y="300.665" width="15.718" height="15.718"/>
	</g>
</g>
<g>
	<g>
		<path d="M256.001,332.191c-17.574,0-31.872,14.298-31.872,31.872c0,17.575,14.298,31.873,31.872,31.873
			c17.575,0,31.873-14.298,31.873-31.873C287.874,346.489,273.575,332.191,256.001,332.191z M256.001,380.218
			c-8.907,0-16.154-7.247-16.154-16.155c0-8.907,7.247-16.154,16.154-16.154c8.908,0,16.155,7.247,16.155,16.154
			C272.156,372.971,264.908,380.218,256.001,380.218z"/>
	</g>
</g>
<g>
	<g>
		<path d="M32.019,164.439h15.718c0-39.819,32.244-72.676,72.063-72.676V76.045C71.598,76.045,32.019,115.188,32.019,164.439z"/>
	</g>
</g>
<g>
	<g>
		<rect x="31.782" y="181.208" width="15.718" height="23.053"/>
	</g>
</g>
<g>
	<g>
		<path d="M474.846,77.169c-23.946-22.845-55.41-34.573-88.555-33.006c-31.037,1.462-59.928,15.145-81.352,38.529
			c-21.141,23.075-32.784,53.058-32.784,84.423v118.411c0,29.985,24.393,54.379,54.378,54.379h1.459l16.704,0.15
			c8.728,1.083,15.51,8.532,15.51,17.548v78.501c0,17.575,14.298,31.873,31.873,31.873s31.873-14.298,31.873-31.873v-78.501
			c0-9.759,7.94-17.699,17.699-17.699h15.974c29.984,0,54.378-24.393,54.378-54.379V163.95
			C512,130.846,498.806,100.027,474.846,77.169z M287.874,167.114c0-27.424,10.177-53.634,28.655-73.805
			c18.601-20.303,43.638-32.181,70.501-33.446c1.703-0.08,3.4-0.119,5.093-0.119c26.94,0,52.296,10.12,71.873,28.798
			c20.82,19.862,32.286,46.643,32.286,75.408v89.558H287.874V167.114z M408.233,436.104c0,8.908-7.247,16.155-16.155,16.155
			s-16.155-7.247-16.155-16.155v-64.187h32.31V436.104z M496.283,276.561H327.278v15.718H495.68
			c-3.204,18.107-19.044,31.908-38.057,31.908h-15.974c-17.955,0-32.641,14.235-33.381,32.012h-32.381
			c-0.241-5.803-1.964-11.231-4.808-15.908l21.096,0.19l0.141-15.718l-46.594-0.418c-1.058-0.102-2.13-0.158-3.215-0.158h-15.974
			c-19.013,0-34.852-13.8-38.058-31.908h24.131v-15.718h-24.734v-7.335h208.409V276.561z"/>
	</g>
</g>
<g>
	<g>
		<rect x="359.765" y="300.665" width="15.718" height="15.718"/>
	</g>
</g>
<g>
	<g>
		<rect x="383.866" y="300.665" width="16.766" height="15.718"/>
	</g>
</g>
<g>
	<g>
		<rect x="409.014" y="300.665" width="14.67" height="15.718"/>
	</g>
</g>
<g>
	<g>
		<path d="M304.173,164.439h15.718c0-39.819,32.535-72.676,72.354-72.676V76.045C344.043,76.045,304.173,115.188,304.173,164.439z"
			/>
	</g>
</g>
<g>
	<g>
		<rect x="303.18" y="181.208" width="15.718" height="23.053"/>
	</g>
</g>
</svg>